<?xml version="1.0" encoding="UTF-8"?>
<svg width="32" height="32" viewBox="0 0 24 24" fill="none" xmlns="http://www.w3.org/2000/svg">
  <path d="M11.47 3.84a.75.75 0 01.06-.02l.08-.04a.75.75 0 01.52 0l.08.04.06.02.05.03a7.67 7.67 0 01.88.66l7.37 6.32a.75.75 0 01.29.59v8.81c0 .41-.34.75-.75.75h-3.5a.75.75 0 01-.75-.75v-5.5a.75.75 0 00-.75-.75h-3a.75.75 0 00-.75.75v5.5c0 .41-.34.75-.75.75h-3.5a.75.75 0 01-.75-.75v-8.81c0-.24.11-.46.29-.59l7.37-6.32c.31-.26.62-.51.88-.66l.05-.03z" fill="#FF5A5F"/>
</svg> 